<?xml version="1.0" encoding="UTF-8" standalone="no"?>
<!-- Created with Inkscape (http://www.inkscape.org/) -->

<svg
   version="1.1"
   id="svg1"
   width="167.03799"
   height="167.02069"
   viewBox="0 0 167.03799 167.02069"
   sodipodi:docname="vecteezy_basketball-outline-icon-illustration-on-isolated-white_6993393.jpg"
   xmlns:inkscape="http://www.inkscape.org/namespaces/inkscape"
   xmlns:sodipodi="http://sodipodi.sourceforge.net/DTD/sodipodi-0.dtd"
   xmlns="http://www.w3.org/2000/svg"
   xmlns:svg="http://www.w3.org/2000/svg">
  <defs
     id="defs1">
    <filter
       style="color-interpolation-filters:sRGB"
       inkscape:label="Invert"
       id="filter1"
       x="0"
       y="0"
       width="1"
       height="1">
      <feColorMatrix
         values="1 0 0 0 0 0 1 0 0 0 0 0 1 0 0 0.21 0.72 0.07 1 0 "
         result="color2"
         id="feColorMatrix1" />
    </filter>
  </defs>
  <sodipodi:namedview
     id="namedview1"
     pagecolor="#ffffff"
     bordercolor="#000000"
     borderopacity="0.25"
     inkscape:showpageshadow="2"
     inkscape:pageopacity="0.0"
     inkscape:pagecheckerboard="0"
     inkscape:deskcolor="#d1d1d1">
    <inkscape:page
       x="0"
       y="0"
       width="167.03799"
       height="167.02069"
       id="page2"
       margin="0"
       bleed="0" />
  </sodipodi:namedview>
  <g
     inkscape:groupmode="layer"
     inkscape:label="Image"
     id="g1"
     transform="translate(-70.082025,-70.078537)">
    <path
       style="fill:#000000;filter:url(#filter1)"
       d="m 147.60001,236.93976 c -8.11825,-0.69018 -14.22452,-1.94163 -21.30107,-4.36553 -15.03811,-5.15095 -28.524795,-14.77304 -38.480872,-27.45422 -11.569892,-14.73672 -17.746444,-32.7042 -17.736034,-51.59381 0.0066,-12.01367 2.478193,-23.5373 7.362224,-34.32616 6.056762,-13.37943 15.595574,-25.007143 27.515742,-33.5414 17.35063,-12.422197 38.38837,-17.63506 59.92001,-14.847354 17.91969,2.320066 35.08569,10.883081 48.01226,23.950223 15.69366,15.864331 24.22774,36.589841 24.22774,58.838501 0,12.03461 -2.47651,23.60289 -7.36426,34.39996 -6.05676,13.37944 -15.59557,25.00715 -27.51574,33.5414 -14.40597,10.31397 -31.23996,15.65474 -49.03381,15.55653 -2.20341,-0.0122 -4.72619,-0.0833 -5.60619,-0.15814 z m 11.84,-4.62267 c 9.62015,-0.79975 18.97729,-3.19756 26.88,-6.88813 l 1.44,-0.67248 -1.84,-0.46428 c -12.32617,-3.11019 -23.79754,-13.34559 -36.19165,-32.29219 -3.33361,-5.09602 -6.74023,-10.70411 -13.16947,-21.68 -8.78082,-14.99047 -13.40248,-22.00789 -18.21894,-27.66322 -2.17506,-2.55388 -5.47149,-5.71452 -7.47033,-7.16261 -1.71378,-1.24157 -3.58414,-2.35299 -3.72414,-2.21298 -0.1372,0.13721 -2.29953,7.16644 -3.07582,9.99881 -2.82643,10.31241 -4.232195,20.23413 -4.227506,29.83731 0.0027,5.62724 0.300306,9.43696 1.131176,14.48269 2.28961,13.90439 8.33646,26.58849 16.90211,35.45448 1.89902,1.9656 2.31145,2.20524 6.99285,4.06325 6.79207,2.6957 14.75242,4.51936 22.65172,5.18934 2.2245,0.18868 9.69541,0.19495 11.92,0.01 z m 36.72414,-12.2599 c 7.85536,-4.87942 16.07049,-12.71499 21.78364,-20.77718 2.15454,-3.04041 5.41222,-8.37484 5.41222,-8.86248 0,-0.10395 -0.43093,-0.86616 -0.95762,-1.69379 -9.07407,-14.25873 -26.46283,-30.79132 -48.24238,-45.86708 -15.41995,-10.67364 -28.31093,-17.83013 -42.22926,-23.44375 -5.11168,-2.06168 -14.70482,-5.17066 -16.14534,-5.23244 -0.45201,-0.0194 -0.53001,0.0802 -1.48762,1.89953 -1.34602,2.55726 -2.54614,5.2243 -4.1616,9.24841 -0.7349,1.83062 -1.33619,3.35046 -1.33619,3.37742 0,0.027 0.73302,0.46568 1.62894,0.97494 6.10091,3.46787 11.82087,9.48557 18.62955,19.59924 3.32936,4.94545 6.15951,9.55472 12.37851,20.16 11.46394,19.54951 16.55042,27.17473 23.26704,34.88 5.14625,5.90374 10.47863,10.30353 15.60101,12.8725 4.39427,2.20381 7.77108,3.14529 12.33496,3.4391 1.012,0.0652 1.94986,0.12969 2.08414,0.14343 0.13427,0.0137 0.78227,-0.3093 1.44,-0.71785 z m -89.24511,-3.52485 c -1.39954,-2.07237 -3.93076,-6.85091 -5.11288,-9.65233 -2.206261,-5.22844 -3.498963,-9.28756 -4.662381,-14.64 -1.38523,-6.37292 -1.943775,-11.89484 -1.943775,-19.21669 0,-11.92096 2.053989,-24.05111 6.350406,-37.50331 0.57617,-1.804 1.05704,-3.42077 1.06859,-3.59282 0.0297,-0.44252 -0.92114,-0.60416 -3.578996,-0.60842 -1.828168,-0.003 -2.405802,0.0612 -3.76,0.41762 -5.201477,1.36892 -10.070987,5.3988 -14.432059,11.94362 -1.523948,2.28704 -2.246142,3.56052 -3.696208,6.51774 -1.776911,3.62378 -2.434856,5.36646 -2.432256,6.44226 0.0028,1.15861 0.410723,5.70116 0.711219,7.92 0.797283,5.8871 2.555732,12.55562 4.767585,18.08 5.462114,13.64229 14.223807,25.10207 26.100965,34.13851 0.60458,0.45998 1.13304,0.80254 1.17434,0.76124 0.0413,-0.0413 -0.20825,-0.49464 -0.55455,-1.00742 z m 119.36725,-32.17233 c 2.4452,-5.48703 4.59696,-13.25735 5.48302,-19.8 1.116,-8.24049 0.91478,-17.49335 -0.55149,-25.36 -0.84996,-4.5601 -2.99253,-12.0703 -4.01566,-14.0758 -0.32606,-0.63911 -5.77368,-6.04181 -7.84672,-7.78201 -5.3417,-4.48403 -10.71133,-7.87855 -15.99543,-10.11182 -4.49483,-1.8997 -9.99986,-3.33582 -16,-4.17401 -6.1119,-0.85379 -11.52951,-1.08914 -29.84,-1.29627 -18.97228,-0.21462 -23.05298,-0.44663 -29.82625,-1.69578 -1.18044,-0.217702 -2.19239,-0.339232 -2.24879,-0.270069 -0.0564,0.06916 -0.53623,0.629749 -1.06629,1.245749 -1.92635,2.23868 -6.45868,8.35181 -6.45868,8.71136 0,0.0603 0.99,0.38498 2.2,0.72158 8.08518,2.24915 17.88745,6.12592 26.92001,10.64678 8.42066,4.21461 16.30529,8.87085 25.8137,15.2442 17.03126,11.41581 30.5287,22.68585 41.62879,34.75908 3.95801,4.305 8.5584,10.03763 10.55751,13.15591 0.352,0.54907 0.68417,0.99893 0.73815,0.9997 0.054,7.7e-4 0.28264,-0.4126 0.50813,-0.9186 z m -149.277398,-43.28 c 1.953749,-2.90658 3.273901,-4.54527 5.38343,-6.68239 3.990778,-4.04299 8.014299,-6.38254 12.700098,-7.38472 2.057572,-0.44006 5.69054,-0.47726 7.85712,-0.0804 0.78624,0.14401 1.44297,0.24511 1.4594,0.22469 0.0164,-0.0204 0.55422,-1.36914 1.19508,-2.99714 1.43253,-3.63914 2.71046,-6.55553 3.99816,-9.12434 0.53946,-1.07615 0.92166,-2.01274 0.84933,-2.0813 -0.27354,-0.25928 -6.84045,-1.26602 -10.45151,-1.60226 -3.846277,-0.35813 -12.222858,-0.13787 -13.14727,0.34572 -0.396764,0.20756 -2.718757,4.29855 -4.303547,7.58218 -2.666315,5.52452 -4.330278,10.19912 -5.762552,16.18885 -0.726148,3.03674 -1.577231,7.89116 -1.383486,7.89116 0.04024,0 0.762829,-1.026 1.605747,-2.28 z M 220.85899,112.28 c -0.60224,-1.0045 -1.77911,-2.76847 -2.90886,-4.36 -12.68384,-17.868227 -32.36733,-29.732109 -54.03012,-32.565705 -1.32,-0.172663 -2.60748,-0.314013 -2.86107,-0.314112 -0.53989,-2.11e-4 -5.54794,2.33939 -8.95381,4.182931 -8.21255,4.445326 -14.72644,9.040513 -21.03804,14.84117 -1.35815,1.248206 -1.60067,1.53827 -1.36,1.626583 0.35445,0.130057 3.66156,0.565403 5.97292,0.786268 3.76828,0.360086 7.80576,0.492684 19.41479,0.637617 19.88461,0.248249 22.63845,0.333788 28.82521,0.895365 8.05723,0.731361 15.27493,2.425483 21.48706,5.043393 4.54689,1.91614 10.62296,5.57626 14.43294,8.69414 0.87819,0.71867 1.24583,0.91074 1.01898,0.53235 z m -107.10482,-4.64 c 1.15367,-1.8428 3.26787,-4.82066 5.00438,-7.04869 0.9468,-1.214782 1.72095,-2.258783 1.72034,-2.320001 -6.2e-4,-0.06122 -0.60979,-0.355396 -1.35371,-0.653729 -3.4976,-1.402634 -6.46981,-3.851543 -7.72057,-6.361239 -0.38609,-0.774704 -0.7326,-1.767495 -0.854,-2.446818 -0.15538,-0.869442 -0.25858,-1.122323 -0.43102,-1.056152 -0.12469,0.04785 -1.10262,0.71319 -2.17315,1.478532 -6.67005,4.768504 -12.540722,10.483583 -17.587528,17.121397 -0.113917,0.14983 0.773875,0.19432 3.947915,0.19783 4.089827,0.005 6.154423,0.12774 9.773173,0.58325 2.18871,0.2755 6.13451,0.94253 7.44,1.25772 1.51285,0.36524 1.54051,0.35593 2.23417,-0.7521 z M 126.3769,92.136994 c 2.86512,-2.767179 4.85397,-4.50407 7.78311,-6.79708 4.41835,-3.458819 10.04067,-7.142275 14.85183,-9.730158 0.77651,-0.417678 1.37533,-0.795919 1.33072,-0.840535 -0.0446,-0.04462 -1.11195,0.0011 -2.37184,0.101688 -11.00647,0.878359 -20.31638,3.460514 -30.06952,8.339953 -2.08014,1.040679 -2.19159,1.121272 -2.46108,1.779593 -0.15525,0.379252 -0.31831,1.212295 -0.36234,1.851207 -0.0735,1.065765 -0.0382,1.246726 0.42724,2.192153 0.91342,1.855416 3.07647,3.445647 6.4164,4.717196 0.92322,0.351483 1.77619,0.641295 1.89548,0.644026 0.11929,0.0027 1.27129,-1.013387 2.56,-2.258043 z"
       id="path1" />
  </g>
</svg>
