<?xml version="1.0" encoding="UTF-8" standalone="no"?>
<!-- Created with Inkscape (http://www.inkscape.org/) -->

<svg
   version="1.1"
   id="svg1"
   width="307.17725"
   height="307.15787"
   viewBox="0 0 307.17724 307.15787"
   xmlns="http://www.w3.org/2000/svg"
   xmlns:svg="http://www.w3.org/2000/svg">
  <defs
     id="defs1" />
  <g
     id="g1">
    <path
       style="fill:#000000"
       d="m 145.18863,307.02156 c -8.48476,-0.52709 -14.9804,-1.35035 -21.68001,-2.74771 -1.716,-0.35792 -3.48,-0.70977 -3.92,-0.78191 -0.44,-0.0721 -1.772,-0.39141 -2.96,-0.7095 -1.188,-0.31809 -2.448,-0.63237 -2.8,-0.69839 -2.02164,-0.37916 -11.66451,-3.54905 -15.67999,-5.15446 -0.88,-0.35182 -1.71713,-0.66563 -1.86028,-0.69734 -0.14315,-0.0317 -0.57515,-0.19951 -0.96,-0.37289 -0.38485,-0.17338 -1.67172,-0.72713 -2.85972,-1.23054 -4.42287,-1.87419 -11.40436,-5.3856 -15.39923,-7.7452 -0.7589,-0.44824 -1.43173,-0.81499 -1.49519,-0.81499 -0.0635,0 -0.33818,-0.16797 -0.61048,-0.37327 -0.27231,-0.20531 -1.0351,-0.68676 -1.6951,-1.06989 -2.01284,-1.16848 -8.44512,-5.4852 -10.73555,-7.20466 -3.8727,-2.90729 -6.92469,-5.33 -8.49286,-6.74175 -0.64438,-0.5801 -2.1796,-1.93888 -3.4116,-3.01951 -4.5493,-3.99037 -12.08087,-11.88778 -16.22151,-17.00947 -1.06533,-1.31772 -3.18769,-4.05825 -4.65119,-6.00591 -1.70013,-2.26256 -6.03749,-8.72611 -7.20408,-10.73554 -0.38316,-0.66 -0.86464,-1.4228 -1.06994,-1.6951 -0.2053,-0.27231 -0.37328,-0.54703 -0.37328,-0.61048 0,-0.0635 -0.36674,-0.7363 -0.81499,-1.49519 -2.36053,-3.99646 -5.873,-10.98033 -7.74489,-15.39923 -0.50325,-1.188 -1.08715,-2.54014 -1.29756,-3.00474 -0.21041,-0.46461 -0.38256,-0.90864 -0.38256,-0.98674 0,-0.0781 -0.15197,-0.48996 -0.33772,-0.91526 -1.21374,-2.77903 -5.08612,-14.50971 -5.43134,-16.45326 -0.0625,-0.352 -0.38491,-1.648 -0.71641,-2.88 -0.3315,-1.232 -0.65326,-2.564 -0.71503,-2.96 -0.0618,-0.396 -0.40552,-2.124 -0.76389,-3.84 -1.42067,-6.80271 -2.20574,-13.06013 -2.76017,-22 -0.19208,-3.09712 -0.19208,-13.06289 0,-16.16 0.55416,-8.93548 1.33815,-15.18612 2.75935,-22.00001 0.35791,-1.716 0.70875,-3.48 0.77965,-3.92 0.0709,-0.44 0.39249,-1.772 0.71467,-2.96 0.32218,-1.188 0.63747,-2.448 0.70064,-2.8 0.35583,-1.98262 4.24422,-13.74726 5.44688,-16.479989 0.19365,-0.44 0.37578,-0.91713 0.40474,-1.06027 0.029,-0.14315 0.19452,-0.57515 0.3679,-0.96 0.17339,-0.38486 0.7264,-1.66618 1.22891,-2.8474 0.50252,-1.18121 0.97264,-2.26121 1.04472,-2.4 0.0721,-0.13878 0.5066,-1.04433 0.96559,-2.01233 1.9251,-4.05998 4.09288,-8.2165 5.73652,-10.99923 0.44825,-0.7589 0.81499,-1.43173 0.81499,-1.49519 0,-0.0635 0.16798,-0.33817 0.37328,-0.61048 0.2053,-0.27231 0.68675,-1.0351 1.06989,-1.6951 1.16847,-2.01284 5.48519,-8.44512 7.20465,-10.73555 3.42808,-4.56642 5.19926,-6.75057 8.56817,-10.56591 7.43127,-8.416043 14.73847,-15.120747 24.20661,-22.210729 2.33171,-1.746041 8.73138,-6.040133 10.73741,-7.204652 0.66,-0.383138 1.42279,-0.864588 1.6951,-1.06989 0.2723,-0.205301 0.54702,-0.373275 0.61048,-0.373275 0.0635,0 0.73629,-0.366747 1.49519,-0.814993 3.94555,-2.330462 11.05093,-5.904464 15.39923,-7.745811 1.188,-0.503075 2.47487,-1.056541 2.85972,-1.229925 0.38485,-0.173384 0.81685,-0.338941 0.96,-0.367903 0.14315,-0.02896 0.62028,-0.211094 1.06028,-0.404737 2.73273,-1.2026655 14.49737,-5.0910526 16.47999,-5.4468836 0.352,-0.06318 1.612,-0.378464 2.8,-0.700641 1.188,-0.322178 2.52,-0.643781 2.96,-0.714675 0.44,-0.07089 2.204,-0.421735 3.92,-0.779648 6.81389,-1.4212 13.06453,-2.2051869 22.00001,-2.7593499 3.09711,-0.192078 13.06288,-0.192078 16.16,0 8.93547,0.554163 15.18611,1.33815 22,2.7593499 1.716,0.357913 3.48,0.708755 3.92,0.779648 0.44,0.07089 1.772,0.392497 2.96,0.714675 1.188,0.322177 2.448,0.637466 2.8,0.700641 1.98263,0.355831 13.74726,4.2442181 16.48,5.4468836 0.44,0.193643 0.91712,0.375774 1.06027,0.404737 0.14315,0.02896 0.57515,0.194519 0.96,0.367903 0.38485,0.173384 1.67173,0.727129 2.85973,1.230544 4.42286,1.87419 11.40435,5.385599 15.39923,7.745192 0.75889,0.448246 1.43173,0.814993 1.49519,0.814993 0.0634,0 0.33817,0.167974 0.61048,0.373275 0.2723,0.205302 1.0351,0.686752 1.6951,1.06989 2.00602,1.164519 8.40569,5.458611 10.7374,7.204652 9.46815,7.089982 16.77534,13.794686 24.20662,22.210729 3.3689,3.81534 5.14008,5.99949 8.56816,10.56591 1.71946,2.29043 6.03618,8.72271 7.20466,10.73555 0.38313,0.66 0.86458,1.42279 1.06989,1.6951 0.2053,0.27231 0.37327,0.54385 0.37327,0.60342 0,0.0596 0.51655,0.98878 1.1479,2.0649 1.6108,2.7456 5.94054,11.37817 7.24079,14.43658 0.5986,1.408 1.22987,2.87487 1.40282,3.25973 0.17296,0.38485 0.33816,0.81685 0.36712,0.96 0.029,0.14314 0.2111,0.62027 0.40474,1.06027 1.20049,2.727779 5.43663,15.561619 5.43663,16.470829 0,0.15372 0.13788,0.75867 0.3064,1.34433 0.45112,1.56779 1.06401,4.08618 1.34944,5.54483 0.13776,0.704 0.46127,2.252 0.71892,3.44 0.25765,1.188 0.47081,2.34001 0.47369,2.56001 0.003,0.22 0.2217,1.66 0.48625,3.2 0.73413,4.27355 1.20974,8.82576 1.62987,15.6 0.19208,3.09711 0.19208,13.06288 0,16.16 -0.55444,8.93987 -1.33951,15.19729 -2.76018,22 -0.35836,1.716 -0.70211,3.444 -0.76388,3.84 -0.0618,0.396 -0.38354,1.728 -0.71504,2.96 -0.3315,1.232 -0.65388,2.528 -0.7164,2.88 -0.34912,1.96549 -4.24018,13.74078 -5.4457,16.48 -0.19364,0.44 -0.37577,0.91712 -0.40474,1.06027 -0.029,0.14315 -0.19452,0.57515 -0.3679,0.96 -0.17338,0.38485 -0.72639,1.66618 -1.22891,2.84739 -0.50251,1.18122 -0.97264,2.26122 -1.04472,2.4 -0.0721,0.13879 -0.50659,1.04434 -0.96559,2.01234 -1.9251,4.05998 -4.09288,8.21649 -5.73652,10.99923 -0.44824,0.75889 -0.81499,1.43173 -0.81499,1.49519 0,0.0634 -0.16797,0.33817 -0.37327,0.61048 -0.20531,0.2723 -0.68676,1.0351 -1.06989,1.6951 -1.16848,2.01283 -5.4852,8.44511 -7.20466,10.73554 -2.90729,3.8727 -5.33,6.92469 -6.74175,8.49287 -0.5801,0.64437 -1.94476,2.17858 -3.03258,3.40934 -6.35824,7.19376 -14.03476,14.1607 -23.00045,20.87443 -2.33171,1.74605 -8.73138,6.04014 -10.7374,7.20466 -0.66,0.38313 -1.4228,0.86458 -1.6951,1.06989 -0.27231,0.2053 -0.54703,0.37327 -0.61048,0.37327 -0.0635,0 -0.7363,0.36675 -1.49519,0.81499 -3.99488,2.3596 -10.97637,5.87101 -15.39923,7.7452 -1.188,0.50341 -2.47488,1.05716 -2.85973,1.23054 -0.38485,0.17338 -0.81685,0.33894 -0.96,0.3679 -0.14315,0.029 -0.62027,0.21094 -1.06027,0.4044 -1.74321,0.76643 -9.3348,3.41232 -11.68,4.07082 -0.704,0.19767 -1.928,0.5586 -2.72,0.80206 -0.792,0.24346 -1.728,0.49813 -2.08,0.56593 -0.352,0.0678 -1.612,0.38688 -2.8,0.70905 -1.188,0.32218 -2.52,0.64379 -2.96,0.71468 -0.44,0.0709 -2.204,0.42173 -3.92,0.77965 -6.81389,1.4212 -13.06453,2.20518 -22,2.75935 -2.77149,0.17188 -13.64951,0.1642 -16.48,-0.0116 z m 11.92,-23.48917 c 7.0749,-1.12449 12.78562,-4.29579 15.09325,-8.38165 0.86651,-1.53423 1.12979,-2.62338 1.03402,-4.27766 -0.0588,-1.01605 -0.18352,-1.44556 -0.79122,-2.7253 -1.1136,-2.34503 -2.68221,-3.888 -5.74815,-5.65415 -1.50566,-0.86734 -2.1539,-1.14644 -4.7079,-2.02693 -5.37506,-1.85304 -12.25652,-2.23879 -17.98059,-1.00792 -1.02268,0.21991 -2.21426,0.47069 -2.64797,0.55728 -1.19557,0.23871 -4.65383,1.66693 -6.06298,2.50394 -3.51625,2.08858 -5.53555,4.41874 -6.27418,7.24005 -0.4451,1.70015 -0.18028,3.40796 0.86386,5.57106 0.33007,0.6838 3.06475,3.49326 4.02186,4.13183 2.19407,1.46387 6.49691,3.23998 8.96,3.69849 0.92752,0.17265 3.85068,0.61701 4.8,0.72965 1.48004,0.17561 7.52296,-0.054 9.44,-0.35869 z M 53.48232,248.16409 c 2.03546,-0.71428 3.67353,-1.93819 4.73153,-3.53525 1.63556,-2.46888 2.17477,-4.4723 2.17477,-8.08021 0,-2.89226 -0.38316,-4.9368 -1.52902,-8.15874 -1.27312,-3.57977 -4.34534,-8.15252 -7.27098,-10.82225 -0.75387,-0.68793 -3.29853,-2.53901 -3.49036,-2.53901 -0.0486,0 -0.44041,-0.21884 -0.87068,-0.48631 -0.83175,-0.51704 -2.33622,-1.07248 -4.10953,-1.51721 -1.62006,-0.4063 -3.94278,-0.27616 -5.60943,0.31428 -3.01745,1.06899 -5.3683,3.95502 -6.24299,7.66424 -0.32836,1.39245 -0.31967,6.11827 0.0142,7.73474 0.86805,4.2025 3.0929,8.81664 5.82897,12.08876 1.11043,1.328 1.6516,1.87534 3.69871,3.74093 1.72755,1.57436 5.1406,3.27889 7.6611,3.82606 1.41262,0.30667 3.79588,0.19732 5.0137,-0.23003 z m 201.97691,-0.0233 c 3.07199,-0.86016 6.17909,-2.6085 9.37191,-5.2735 4.30081,-3.58981 8.33138,-9.45875 9.94341,-14.47867 0.93235,-2.90336 1.10697,-3.83099 1.11436,-5.92 0.006,-1.602 -0.0554,-2.1055 -0.36879,-3.04 -0.54612,-1.62856 -0.84201,-2.14502 -1.76762,-3.08535 -1.77861,-1.80689 -4.33109,-2.47896 -7.15714,-1.88448 -0.6018,0.12659 -1.29421,0.30622 -1.53868,0.39917 -0.24448,0.0929 -0.64824,0.20489 -0.89725,0.24876 -0.58046,0.10226 -3.29074,1.47842 -4.69831,2.3856 -2.33884,1.50737 -4.64152,3.49066 -6.4111,5.52185 -1.06916,1.22723 -1.66192,2.0125 -3.54093,4.6909 -0.64542,0.92 -2.25982,3.99348 -2.67024,5.08355 -0.87823,2.3326 -1.25671,3.48763 -1.31072,4 -0.0325,0.308 -0.14751,1.24297 -0.25566,2.0777 -0.40265,3.10777 0.30508,5.87409 1.94931,7.61927 0.78182,0.82982 2.45185,1.74873 3.64685,2.00662 0.92577,0.19979 3.26022,0.0211 4.5906,-0.35142 z M 111.50862,225.61157 c 3.48446,-0.76164 6.53545,-2.44535 9.24496,-5.10188 2.42795,-2.38048 3.98563,-4.97032 4.89755,-8.14281 0.99306,-3.45475 1.11377,-6.10578 0.41682,-9.15461 -0.55391,-2.42309 -0.77019,-3.05565 -1.61307,-4.71776 -1.90683,-3.76016 -4.89344,-6.75727 -8.63067,-8.66103 -0.96557,-0.49186 -1.75559,-0.86005 -1.75559,-0.81819 0,0.0419 -0.414,-0.0668 -0.92,-0.24148 -2.07646,-0.71678 -3.07134,-0.86518 -5.8,-0.86518 -1.95646,0 -2.92998,0.0713 -3.76,0.27529 -2.00451,0.49271 -4.00296,1.20961 -4.99862,1.79315 -0.53637,0.31436 -1.0351,0.57231 -1.1083,0.57324 -0.29827,0.004 -2.14934,1.52866 -3.63686,2.99601 -2.07542,2.04728 -3.58162,4.37574 -4.52954,7.00231 -0.27274,0.75571 -0.2589,0.70079 -0.66508,2.64 -0.60366,2.88201 -0.58175,5.43647 0.068,7.93113 0.12362,0.47463 0.26269,1.07822 0.30904,1.3413 0.14439,0.81959 1.26474,3.22109 2.22677,4.77313 2.5501,4.11407 7.23752,7.40623 11.87611,8.34108 0.86815,0.17497 1.75845,0.35204 1.97845,0.39349 0.97848,0.18437 4.93179,-0.0363 6.4,-0.35719 z m 91.12001,0.20416 c 0.792,-0.13842 1.76562,-0.31122 2.1636,-0.384 1.20988,-0.22123 3.96224,-1.39715 5.73112,-2.44856 1.31808,-0.78345 2.07705,-1.39468 3.57587,-2.87979 2.48918,-2.46641 3.74071,-4.40856 4.92294,-7.63951 0.83303,-2.27662 1.20208,-6.22374 0.81485,-8.71524 -0.0821,-0.528 -0.19146,-1.24466 -0.2431,-1.59259 -0.12694,-0.85519 -0.71677,-2.45549 -1.57255,-4.2666 -3.29542,-6.97413 -11.50062,-11.7295 -19.4739,-11.28621 -4.55009,0.25296 -8.84734,1.90248 -12.37147,4.74884 -3.9753,3.21076 -6.49991,7.92431 -7.14583,13.34156 -0.76395,6.40715 2.93581,14.01256 8.6015,17.68167 0.68033,0.44059 1.32382,0.87572 1.42997,0.96697 0.10616,0.0913 1.03071,0.53063 2.05456,0.97641 3.57327,1.55575 7.93292,2.12267 11.51244,1.49705 z m 61.10563,-59.49945 c 4.47249,-1.13454 7.85819,-4.44579 9.92299,-9.7048 0.93996,-2.39406 1.39783,-5.02297 1.40877,-8.08861 0.0183,-5.14063 -1.18645,-9.33716 -3.81463,-13.28706 -2.18359,-3.28174 -4.89404,-5.39447 -8.38276,-6.53416 -3.89103,-1.27113 -8.46148,0.0304 -11.77189,3.35228 -1.94055,1.94727 -3.55613,4.83542 -4.43854,7.9347 -0.81514,2.86303 -0.98919,4.0821 -0.97087,6.8 0.0363,5.39238 1.93483,10.76839 5.20109,14.72815 2.12908,2.58113 5.48487,4.55938 8.62021,5.08164 1.1619,0.19354 2.77505,0.0858 4.22563,-0.28214 z m -217.0334,-1.38699 c 2.22975,-0.62396 3.92189,-1.67792 5.78466,-3.60304 1.72987,-1.78776 2.66044,-3.31188 4.40114,-7.20833 0.12549,-0.28089 0.29032,-0.82089 0.36629,-1.2 0.076,-0.37911 0.28616,-1.33729 0.46708,-2.12929 1.19748,-5.24191 0.60313,-11.14518 -1.61317,-16.02266 -1.97061,-4.33677 -4.99363,-7.44347 -8.62883,-8.86766 -1.16062,-0.45471 -1.56864,-0.53027 -3.21372,-0.59514 -2.1837,-0.0861 -3.08938,0.10613 -5.17889,1.09917 -3.74763,1.78108 -6.65016,5.41752 -8.35397,10.46629 -1.14741,3.40002 -1.21025,3.83561 -1.21189,8.4 -0.002,4.57522 0.085,5.17871 1.21445,8.45413 1.184,3.43372 2.89316,6.19465 5.09924,8.23713 3.22696,2.98767 7.05981,4.03494 10.86761,2.9694 z m 69.12776,-22.78456 c 7.92742,-1.64228 13.50583,-7.43673 14.81517,-15.38889 0.42476,-2.57973 0.21379,-4.77452 -0.80211,-8.34458 -0.27106,-0.95255 -1.47538,-3.39157 -2.22327,-4.50264 -0.75007,-1.11429 -3.77372,-4.07826 -4.90876,-4.81188 -2.35733,-1.52361 -4.82967,-2.47535 -7.26446,-2.79648 -3.57647,-0.47171 -6.46641,-0.16565 -9.37321,0.9927 -3.77395,1.50389 -6.3838,3.6115 -8.64757,6.98341 -1.97386,2.94009 -2.94848,6.22981 -2.94848,9.95225 0,4.50538 1.50608,8.59597 4.33482,11.77355 1.05325,1.18314 2.69541,2.68354 3.65787,3.34209 0.83523,0.5715 3.42514,1.90954 3.85629,1.9923 0.18495,0.0355 0.79695,0.20589 1.36,0.37863 0.96296,0.29544 2.5575,0.60319 3.82371,0.738 0.87471,0.0931 3.174,-0.071 4.32,-0.30846 z m 77.52001,-0.007 c 3.52461,-0.71319 6.88657,-2.65406 9.29538,-5.36626 1.00889,-1.13595 2.37332,-3.24909 2.95884,-4.58244 0.2609,-0.59413 0.54268,-1.20246 0.62619,-1.35184 0.1583,-0.28321 0.50112,-1.75996 0.88408,-3.80839 0.87418,-4.67594 -0.69752,-10.66493 -3.79804,-14.47244 -1.76206,-2.16387 -3.6911,-3.75301 -5.81587,-4.79113 -2.04183,-0.9976 -2.5069,-1.14967 -4.47058,-1.4618 -1.8631,-0.29615 -3.55542,-0.29386 -5.42723,0.007 -2.34279,0.37699 -4.37721,1.24264 -6.51188,2.77082 -4.78356,3.42447 -7.64074,9.0476 -7.65584,15.06719 -0.0148,5.90345 2.80718,11.76344 7.22812,15.00951 0.50224,0.36877 0.9557,0.6705 1.00768,0.6705 0.052,0 0.48674,0.25089 0.96611,0.55755 0.83505,0.53417 1.99304,1.09429 1.99304,0.96403 0,-0.0342 0.486,0.107 1.08,0.31368 2.51842,0.87626 4.91582,1.02489 7.64,0.47367 z m 74.14063,-59.478399 c 1.25601,-0.6236 2.27152,-2.14407 2.5995,-3.89212 0.5304,-2.82685 -0.87673,-7.77357 -3.49836,-12.29841 -1.8707,-3.22877 -5.05575,-7.07282 -7.53956,-9.09955 -3.24585,-2.64852 -6.18284,-4.07873 -8.67063,-4.22228 -1.26384,-0.0729 -1.43945,-0.0442 -2.29764,0.37603 -1.01589,0.49743 -1.76517,1.31199 -2.26367,2.46086 -0.26253,0.60505 -0.30947,1.08511 -0.30508,3.12 0.005,2.17009 0.0496,2.55336 0.45969,3.92494 0.24998,0.836 0.50812,1.592 0.57364,1.68 0.0655,0.088 0.24837,0.556 0.40632,1.04 0.29549,0.90547 1.82464,3.92888 2.34676,4.64 0.16154,0.22 0.69751,1.012 1.19105,1.76 3.60099,5.45759 9.25619,9.94153 13.72691,10.88388 0.94742,0.1997 2.46597,0.0264 3.27107,-0.37335 z M 43.65499,81.901651 c 1.25454,-0.34765 3.3534,-1.4208 4.97363,-2.54302 0.572,-0.39619 2.05076,-1.73051 3.28612,-2.96517 1.8793,-1.87822 2.49499,-2.62372 3.77002,-4.56483 2.32703,-3.54272 4.1418,-7.53835 4.55691,-10.03307 0.0409,-0.24582 0.15935,-0.84293 0.26321,-1.32693 0.10387,-0.484 0.19136,-1.78 0.19443,-2.88 0.007,-2.38146 -0.3852,-4.01541 -1.28973,-5.37815 -1.00204,-1.50963 -2.06942,-2.18855 -3.88323,-2.46998 -1.2247,-0.19002 -2.98671,-0.0118 -4.23687,0.42862 -1.05554,0.37183 -3.12427,1.47696 -4.37346,2.33632 -1.32233,0.90969 -5.10617,4.66344 -6.25289,6.20319 -4.14463,5.56511 -6.64182,12.8282 -5.9589,17.33151 0.78393,5.16949 3.95479,7.24596 8.95076,5.86151 z m 71.77363,-12.87331 c 2.1062,-0.25663 2.81975,-0.4271 4.93855,-1.17984 3.64062,-1.2934 6.43998,-3.21858 8.61042,-5.92158 3.02757,-3.77046 3.53076,-8.38641 1.38939,-12.74555 -0.57018,-1.1607 -0.99202,-1.72733 -2.29835,-3.087231 -1.79444,-1.868015 -3.06418,-2.787371 -5.52001,-3.996759 -1.6956,-0.835013 -4.77771,-1.809251 -6.69882,-2.117458 -1.66332,-0.26685 -6.92624,-0.211871 -8.47792,0.08857 -1.76331,0.34141 -4.54139,1.220217 -6.0266,1.906427 -1.43431,0.662694 -3.64647,2.083404 -4.8386,3.107479 -1.74095,1.495539 -3.46378,4.171412 -4.18896,6.506232 -0.44824,1.44316 -0.48816,4.19689 -0.0814,5.61606 1.02267,3.56819 3.5611,6.68482 7.21435,8.85761 1.72478,1.02583 2.49245,1.35676 5.25194,2.26403 2.61953,0.86125 7.04312,1.15077 10.72602,0.70202 z m 79.92845,0.01 c 2.0269,-0.1865 2.81332,-0.33621 4.24,-0.80714 4.41275,-1.45661 6.91418,-3.34753 9.38644,-7.09552 0.51393,-0.77913 1.26148,-3.39812 1.35723,-4.75501 0.20526,-2.90856 -0.94095,-6.14032 -3.18801,-8.98863 -2.71216,-3.43785 -7.7059,-6.21949 -13.13833,-7.318374 -1.80805,-0.365737 -6.93782,-0.368714 -8.66577,-0.005 -3.31933,0.698626 -6.55905,2.205778 -8.62501,4.012455 -2.18456,1.910394 -3.15354,3.299379 -3.96521,5.683939 -0.4619,1.35699 -0.51227,1.69079 -0.51656,3.42359 -0.004,1.72262 0.0475,2.08449 0.50385,3.52 1.53559,4.83079 5.89796,8.96334 11.58524,10.97488 2.82541,0.99932 3.56084,1.15679 6.61769,1.41696 0.792,0.0674 1.548,0.13253 1.68,0.14471 0.132,0.0122 1.3598,-0.0809 2.72844,-0.20683 z M 102.62862,19.749959 c 2.49077,-0.243783 4.68449,-0.61949 6.88,-1.1783 0.704,-0.179185 1.46,-0.357839 1.68,-0.39701 1.46882,-0.261524 5.61037,-1.587995 7.2,-2.306044 0.484,-0.218627 1.15587,-0.495935 1.49303,-0.616241 1.05584,-0.376738 3.60679,-1.789501 4.57126,-2.531648 1.05458,-0.811478 1.81157,-1.62792 2.19264,-2.364825 0.24646,-0.4765875 0.24467,-0.5422915 -0.0285,-1.0495605 -0.29478,-0.547369 -1.3244,-1.266629 -2.01312,-1.406297 -3.67385,-0.745035 -7.27097,-0.71865 -12.71786,0.09329 -1.88833,0.281482 -7.20048,1.56319 -9.08918,2.1930265 -0.97254,0.324318 -1.80426,0.596045 -1.84826,0.603839 -0.5348,0.09473 -3.80042,1.493892 -5.51999,2.365058 -2.55993,1.296904 -4.72475,3.30492 -4.71645,4.374818 0.008,1.006215 1.34452,1.914003 3.25823,2.212723 1.81081,0.282659 5.80969,0.285973 8.65821,0.0072 z m 108.53773,-0.336152 c 1.77236,-0.589405 2.23158,-1.694057 1.30901,-3.148794 -1.06054,-1.672302 -4.90437,-3.978207 -10.00673,-6.00302 -1.87446,-0.7438585 -6.57139,-2.2239695 -7.69781,-2.4257615 -0.43021,-0.07707 -2.00619,-0.40137 -3.50219,-0.720669 -2.12261,-0.45304 -3.29983,-0.609703 -5.36,-0.713302 -4.74196,-0.238458 -6.9843,0.077 -8.11801,1.142069 -0.42635,0.40054 -0.48901,1.339151 -0.13432,2.01224 0.36252,0.6879505 2.82682,2.9120545 3.22655,2.9120545 0.0636,0 0.33837,0.168958 0.61067,0.375462 0.52955,0.40158 4.07308,2.168727 5.13511,2.560857 0.352,0.129968 1.144,0.430273 1.76,0.667344 1.86579,0.71806 5.99074,1.984835 7.52,2.309395 0.792,0.16809 2.34,0.498529 3.44,0.734309 2.55423,0.54749 4.48965,0.699573 8.08,0.634918 2.22896,-0.04014 3.07389,-0.116342 3.73772,-0.337102 z"
       id="path1" />
  </g>
</svg>
