<!-- Signal (24x24, currentColor) -->
<svg xmlns="http://www.w3.org/2000/svg" width="24" height="24" viewBox="0 0 32 32" fill="none" aria-hidden="true">
  <!-- Outer ring + chat bubble -->
  <path fill="currentColor" d="M16 3C9.38 3 4 8.16 4 14.52c0 2.26.71 4.37 1.93 6.13L5 29l8.7-2.06c.75.14 1.52.22 2.3.22 6.62 0 12-5.16 12-11.52S22.62 3 16 3zm0 21.76c-.86 0-1.71-.1-2.53-.3l-.38-.09-5.1 1.2 1.36-4.78-.25-.39a9.5 9.5 0 0 1-1.57-5.19C7.53 10.1 11.27 6.8 16 6.8s8.47 3.3 8.47 8.36S20.73 24.76 16 24.76z"/>
  <!-- “Dashes” hinting the Signal ring -->
  <path fill="currentColor" d="M26.64 7.36a1 1 0 0 1 1.41 0c.6.6 1.14 1.27 1.6 1.98a1 1 0 1 1-1.7 1.06 10.4 10.4 0 0 0-1.3-1.6 1 1 0 0 1 0-1.44zM3.95 20.8a1 1 0 0 1 1.34.45c.37.66.8 1.28 1.28 1.85a1 1 0 0 1-1.53 1.28 12.7 12.7 0 0 1-1.53-2.2 1 1 0 0 1 .44-1.38z"/>
</svg>
