<?xml version="1.0" encoding="UTF-8" standalone="no"?>
<!-- Created with Inkscape (http://www.inkscape.org/) -->

<svg
   version="1.1"
   id="svg1"
   width="216.84503"
   height="216.82359"
   viewBox="0 0 216.84503 216.82359"
   xmlns="http://www.w3.org/2000/svg"
   xmlns:svg="http://www.w3.org/2000/svg">
  <defs
     id="defs1" />
  <g
     id="g1"
     transform="translate(-45.144657,-45.214547)">
    <path
       style="fill:#000000"
       d="m 147.60001,261.90948 c -15.2476,-0.93793 -29.30404,-4.66779 -42.51307,-11.28081 -8.328942,-4.16982 -15.655129,-9.102 -23.006937,-15.48885 -2.197379,-1.90896 -7.699428,-7.37979 -9.674704,-9.61981 -9.007938,-10.21525 -16.16547,-22.28581 -20.777831,-35.04 -6.921752,-19.14018 -8.325377,-39.5558 -4.09215,-59.52 C 51.956759,110.10817 62.488734,91.019851 77.861805,75.995798 86.149361,67.896396 95.044837,61.584242 105.36,56.483309 c 5.68021,-2.808907 8.83776,-4.098663 14.8,-6.045315 4.5128,-1.473412 5.42969,-1.729658 8.99443,-2.513709 8.99274,-1.977916 15.34124,-2.690882 24.12558,-2.709415 9.97476,-0.02105 18.02546,0.978614 27.76,3.446972 2.53323,0.642345 11.41685,3.514012 12.74956,4.121354 0.37974,0.173053 1.95044,0.868568 3.49044,1.545587 10.68405,4.696957 20.22224,10.86307 28.96,18.721651 2.15299,1.936359 6.53466,6.343621 8.49993,8.549569 4.57052,5.13026 9.58025,12.110971 12.86197,17.922259 0.76957,1.362758 1.64511,2.902188 1.94565,3.420948 0.70638,1.21929 3.16746,6.53922 4.4554,9.63092 1.1989,2.87793 3.33088,9.1515 4.20917,12.38587 1.64444,6.05579 2.84215,12.86565 3.48945,19.84001 0.34367,3.70293 0.39084,13.33735 0.0822,16.8 -1.00851,11.31622 -2.74864,19.24663 -6.58275,30 -1.33668,3.74893 -4.16419,9.92568 -6.51738,14.23733 -8.11406,14.86701 -20.47453,28.35384 -34.67134,37.83075 -14.07838,9.39787 -30.19135,15.42795 -46.81234,17.51894 -5.85608,0.73672 -14.30521,1.04815 -19.6,0.72245 z m 12.56,-1.92966 c 11.66547,-0.78068 22.45675,-3.22778 33.28,-7.54679 3.47502,-1.38671 9.60562,-4.33275 12.75111,-6.12751 4.44371,-2.5355 9.68571,-6.06478 13.46966,-9.06872 l 1.72398,-1.36861 0.26358,-1.89409 c 0.54912,-3.94609 0.87799,-9.17409 0.5771,-9.17409 -0.10319,0 -1.38412,0.38824 -2.84652,0.86277 -5.01597,1.62759 -9.19191,2.37367 -14.95267,2.67145 -4.89288,0.25293 -11.59075,-0.14876 -15.82516,-0.94907 l -0.75892,-0.14343 -1.64108,1.27787 c -11.09327,8.63804 -21.47687,14.02515 -32.80023,17.01706 -1.29753,0.34284 -2.36204,0.69535 -2.36557,0.78335 -0.004,0.088 -0.31371,3.2042 -0.68929,6.92489 -0.37559,3.72069 -0.64707,6.8007 -0.6033,6.84447 0.13032,0.13032 8.08268,0.0467 10.41731,-0.10955 z m -12.32,-0.28581 c 0,-0.16831 0.29035,-3.21031 0.64522,-6.76 0.35488,-3.5497 0.62488,-6.58376 0.6,-6.74236 -0.0322,-0.2055 -0.89579,-0.66897 -3.00522,-1.6129 -11.4561,-5.12635 -21.40826,-11.79798 -30.00001,-20.11109 l -2.08,-2.01254 -4.4,-0.18495 c -7.87367,-0.33095 -14.547352,-1.37689 -21.134266,-3.31228 -1.67805,-0.49305 -6.519727,-2.22197 -8.029348,-2.8672 -0.729531,-0.31182 -0.657484,-0.46864 -1.024202,2.22932 -0.36941,2.71775 -0.421398,11.00534 -0.07287,11.61584 0.385618,0.67546 4.769624,4.56819 8.317112,7.38508 9.503785,7.54651 20.590894,13.54196 32.183574,17.40354 8.01742,2.67064 15.63538,4.23141 24.88001,5.0974 2.59432,0.24303 3.12,0.22148 3.12,-0.12786 z m 59.84,-33.44866 c 4.34668,-0.53738 7.97569,-1.33636 11.83381,-2.60538 l 2.9538,-0.97157 1.1262,-1.04947 c 1.59481,-1.48617 4.50643,-4.59358 6.23934,-6.65892 6.54409,-7.79947 11.74277,-17.15643 14.70966,-26.47553 0.69223,-2.17433 0.73713,-2.42314 0.73628,-4.08 -0.001,-2.404 -0.4043,-6.84701 -0.89307,-9.84447 -1.25588,-7.70189 -3.80216,-14.85374 -7.61886,-21.39945 -0.52577,-0.9017 -1.00346,-1.66578 -1.06155,-1.69795 -0.0581,-0.0322 -1.90561,0.10968 -4.10561,0.31522 -2.2,0.20554 -7.492,0.70116 -11.76,1.10138 -4.268,0.40022 -9.776,0.91109 -12.24,1.13526 -2.464,0.22417 -4.624,0.46518 -4.8,0.53557 -0.176,0.0704 -0.67501,0.69543 -1.10891,1.38898 -1.42186,2.27271 -7.8492,11.90703 -10.2878,15.42099 -4.42799,6.38061 -9.15292,12.82372 -12.43731,16.96 -0.80357,1.012 -1.51481,1.92823 -1.58052,2.03606 -0.0677,0.11104 0.74946,2.48841 1.88418,5.48192 3.86252,10.18972 6.58571,18.91181 8.64993,27.70482 l 0.4373,1.86279 1.62156,0.25212 c 1.60648,0.24977 5.19988,0.67684 6.74157,0.80124 1.4449,0.11658 9.5701,-0.0418 10.96,-0.21361 z m -92.71712,-8.52534 c 4.00922,-8.78843 9.84005,-19.61228 14.82872,-27.52673 0.59862,-0.9497 1.0884,-1.81498 1.0884,-1.92286 0,-0.10787 -0.16925,-0.44684 -0.3761,-0.75327 -0.74674,-1.10622 -5.18606,-8.35406 -8.46165,-13.81487 -7.1872,-11.98196 -11.7689,-20.35016 -13.4153,-24.50227 -0.38383,-0.968 -0.70978,-1.78187 -0.72433,-1.80859 -0.0145,-0.0267 -1.70859,-0.29705 -3.76454,-0.60074 -8.871785,-1.31048 -17.489096,-2.89279 -22.200908,-4.07652 -2.189056,-0.54996 -6.970731,-1.97533 -7.724749,-2.30269 -0.210157,-0.0912 -0.479202,0.19858 -1.253869,1.35068 -2.884515,4.28988 -6.06251,10.49999 -8.407579,16.42921 -1.921103,4.85727 -4.870983,14.72822 -4.870983,16.29938 0,0.48191 1.989744,6.50208 3.354465,10.14927 2.930724,7.8323 6.648644,15.28066 10.540589,21.11666 2.649729,3.97329 5.690652,7.71921 6.584947,8.11159 9.596734,4.21061 20.348347,6.47429 31.291897,6.58829 l 2.2519,0.0235 z m 57.51712,-27.95738 c 1.364,-0.0959 2.63935,-0.20839 2.83412,-0.25004 0.21922,-0.0469 1.03538,-0.94376 2.14229,-2.35416 6.4021,-8.15742 13.81608,-18.6579 21.14367,-29.94598 1.97444,-3.0416 2.36333,-3.73707 2.27855,-4.07486 -0.18997,-0.75691 -3.30328,-8.39404 -4.8338,-11.85758 -4.20921,-9.52543 -9.21996,-18.77749 -14.96028,-27.62331 l -1.04393,-1.60869 -2.70031,-0.42504 c -9.0828,-1.42968 -19.09942,-2.10005 -34.14031,-2.28487 l -8.08,-0.0993 -3.28,4.82476 C 118.76427,133.29752 109.76,146.66804 109.76,146.85039 c 0,1.16479 4.35015,9.55917 9.88227,19.06962 4.21992,7.25458 12.43877,20.74684 12.97962,21.30763 0.1909,0.19793 1.07065,0.37475 3.37812,0.67896 9.33719,1.23098 13.41459,1.59765 23.12,2.07912 2.03853,0.10113 10.83775,-0.0458 13.36,-0.22309 z m 77.55068,-6.01134 c 2.33852,-0.9165 4.3222,-1.89026 5.71175,-2.80384 1.20874,-0.7947 1.08897,-0.52743 1.93029,-4.30744 2.46857,-11.0912 3.11022,-23.26055 1.83488,-34.8 -1.32223,-11.96377 -4.62211,-23.51006 -9.83138,-34.40001 -0.58934,-1.232 -1.09737,-2.26779 -1.12897,-2.30176 -0.1025,-0.11021 -2.97534,0.95245 -4.49594,1.66303 -1.3092,0.61179 -4.41185,2.39124 -5.2292,2.99907 -0.2887,0.2147 -0.28274,0.30014 0.19355,2.7706 1.88509,9.77777 2.02289,19.47475 0.41136,28.94907 -0.30281,1.78026 -1.20475,5.56728 -1.75765,7.37997 l -0.41364,1.3561 0.83753,1.39196 c 4.14878,6.89524 6.89853,14.60979 8.31604,23.33103 0.34118,2.09915 0.78498,6.98472 0.78855,8.68094 l 0.002,1.02 0.47068,-0.0941 c 0.25888,-0.0518 1.32088,-0.42734 2.36,-0.83458 z M 58.279326,171.82908 c 0.637347,-2.58005 2.087786,-7.60746 2.776453,-9.62356 2.660447,-7.78856 6.514618,-15.75255 10.66766,-22.04292 l 0.790556,-1.19741 -0.178256,-4.32259 c -0.219815,-5.33036 -0.223278,-8.69731 -0.013,-12.6426 0.378871,-7.10854 1.199594,-13.50971 2.634757,-20.5496 0.223082,-1.09428 0.348142,-2.030277 0.277912,-2.079997 -2.234441,-1.581862 -4.677291,-3.003844 -7.315403,-4.258293 -1.144,-0.543984 -2.205469,-1.032283 -2.358819,-1.085109 -0.213275,-0.07347 -0.460877,0.175354 -1.053281,1.058478 -4.952919,7.383531 -9.892824,17.780051 -12.560447,26.434691 -2.536138,8.22805 -3.758404,14.53508 -4.620029,23.83984 -0.311017,3.3587 -0.262404,13.79311 0.08124,17.43761 0.149234,1.58269 0.271334,2.96589 0.271334,3.07377 0,0.10788 0.162,0.35233 0.36,0.54321 0.6731,0.6489 4.195994,3.42303 5.16,4.06328 1.458329,0.96855 4.460216,2.64704 4.632795,2.59041 0.08404,-0.0276 0.284975,-0.58523 0.446528,-1.23921 z M 184.60319,105.4 c 2.3681,-2.574 5.62852,-6.119996 7.24536,-7.879996 2.67038,-2.906811 9.8049,-10.661013 10.898,-11.844561 l 0.44753,-0.48456 -1.28513,-2.391549 c -3.46054,-6.439871 -8.27161,-12.583105 -14.97329,-19.119331 -4.50393,-4.392739 -4.48372,-4.377618 -6.957,-5.207161 -5.7382,-1.924606 -10.71582,-2.941169 -17.20405,-3.51353 -3.48827,-0.307717 -11.6505,-0.309506 -15.4946,-0.0034 -2.99048,0.238135 -6.84998,0.653442 -7.6765,0.826039 -0.53708,0.112154 -4.54903,3.095089 -7.6835,5.712771 -6.29581,5.257802 -11.70726,10.92689 -15.56932,16.310585 l -1.32931,1.853056 1.80931,2.062102 c 6.95265,7.924036 12.76009,16.012736 17.23095,23.999525 l 1.00761,1.8 7.54538,0.0188 c 4.14996,0.0103 7.94138,0.0398 8.42538,0.0656 0.484,0.0257 2.248,0.0919 3.92,0.14706 3.55655,0.11734 9.14103,0.46966 12.88,0.8126 2.78188,0.25516 9.87238,1.12792 10.96,1.34906 1.47025,0.29894 1.13923,0.55637 5.80318,-4.51308 z m 54.39125,2.01311 c 1.65786,-1.06968 5.23691,-2.84625 7.02239,-3.48579 0.69475,-0.24885 1.32908,-0.5118 1.40963,-0.58433 0.29865,-0.26894 -3.95704,-7.283783 -7.02645,-11.582026 -10.51709,-14.727558 -24.52299,-26.524322 -40.70457,-34.28427 -2.64243,-1.267192 -7.68273,-3.39677 -8.03902,-3.396571 -0.40301,2.25e-4 -4.52568,2.096461 -5.83016,2.964432 -1.9337,1.286637 -1.91123,1.159778 -0.44437,2.509703 8.79904,8.097559 15.09101,16.009834 19.1659,24.101483 l 0.5461,1.084408 2.53306,1.332996 c 9.98658,5.255335 19.69871,12.232672 27.00474,19.400585 1.58857,1.55855 2.90381,2.83655 2.92275,2.84 0.0189,0.003 0.66693,-0.40183 1.44,-0.90062 z M 78.634111,96.187628 C 87.778283,89.390453 98.929351,83.635913 110.16,79.9186 l 3.04,-1.006231 1.18427,-1.656183 c 5.19356,-7.263142 12.69795,-14.735946 21.17574,-21.086589 0.858,-0.642722 1.56,-1.216047 1.56,-1.274057 0,-0.446443 -8.45721,-4.655538 -9.35424,-4.655538 -0.18647,0 -1.52406,0.328862 -2.9724,0.730804 -15.83105,4.393392 -30.778715,12.686916 -42.948082,23.829197 -2.170574,1.987379 -6.280842,6.160281 -8.19512,8.32 -1.620432,1.828197 -4.319917,5.178958 -5.816962,7.220358 -0.637131,0.868803 -1.229056,1.669635 -1.315389,1.779627 -0.115538,0.147198 0.0066,0.268074 0.462608,0.45795 2.45833,1.023545 5.801987,2.834527 8.139578,4.408536 0.616,0.414781 1.182731,0.758509 1.259403,0.763839 0.07667,0.0053 1.091289,-0.697878 2.254705,-1.562685 z"
       id="path1" />
  </g>
</svg>
