<?xml version="1.0" encoding="UTF-8" standalone="no"?>
<!-- Created with Inkscape (http://www.inkscape.org/) -->

<svg
   version="1.1"
   id="svg1"
   width="107.39706"
   height="107.97007"
   viewBox="0 0 107.39706 107.97007"
   xmlns="http://www.w3.org/2000/svg"
   xmlns:svg="http://www.w3.org/2000/svg">
  <defs
     id="defs1" />
  <g
     id="g1"
     transform="translate(-99.89008,-86.229836)">
    <path
       style="fill:#000000"
       d="m 149.20001,194.14192 c -10.3009,-1.027 -18.49178,-3.91186 -26.36518,-9.28592 -8.41027,-5.7405 -15.31052,-14.08296 -19.16615,-23.17204 -0.73306,-1.72808 -2.06868,-5.32965 -2.06868,-5.57831 0,-0.0844 0.37474,0.34337 0.83276,0.9505 1.16758,1.54769 3.80962,4.23723 5.32724,5.42302 4.724,3.69108 10.29296,6.07976 16.85937,7.23148 2.30419,0.40414 2.84001,0.43902 6.82064,0.44398 3.47634,0.004 4.66228,-0.0522 6.07266,-0.28961 2.51951,-0.42406 6.17093,-1.35582 10.48734,-2.67612 2.068,-0.63256 5.272,-1.61146 7.12,-2.17535 6.81164,-2.07844 11.47987,-3.08255 15.88674,-3.41714 4.63155,-0.35164 9.12837,0.46453 12.51326,2.27114 2.99006,1.59589 5.82244,4.24275 7.91695,7.39839 1.29576,1.95223 2.47729,4.04797 2.4808,4.40032 0.003,0.33248 -3.79038,4.12372 -5.91827,5.91445 -3.53269,2.97293 -6.95078,5.19182 -11.11948,7.21835 -5.42703,2.63823 -10.72112,4.23613 -16.72,5.04653 -1.90098,0.25681 -9.33924,0.45792 -10.96,0.29633 z m 46.72281,-23.67791 c -4.28843,-7.18628 -10.08772,-11.36605 -17.66511,-12.73193 -2.44486,-0.4407 -7.16861,-0.47628 -10.0977,-0.0761 -5.06731,0.69238 -9.06582,1.70796 -19.6,4.97816 -8.19637,2.54446 -11.40912,3.24019 -15.68,3.39554 -4.78111,0.17391 -9.7963,-0.60124 -14.11551,-2.18172 -9.04906,-3.3112 -15.38003,-10.15664 -17.69042,-19.128 -0.88153,-3.42301 -1.316701,-7.69769 -1.148335,-11.28 0.171305,-3.64492 0.608815,-5.75942 2.151865,-10.40001 1.08823,-3.27279 1.69219,-4.64918 2.93559,-6.69011 4.61584,-7.57649 11.76907,-12.55911 20.45034,-14.24479 2.43406,-0.47264 2.56948,-0.49019 5.08585,-0.65912 4.42994,-0.2974 8.45056,0.1856 12.14272,1.45871 3.72966,1.28605 6.54133,2.72016 13.8679,7.07346 5.3969,3.20673 10.09057,5.58934 12.7353,6.46473 3.14813,1.04202 4.32235,1.23932 7.2647,1.22066 2.22775,-0.0141 2.76716,-0.0712 4.15624,-0.43986 4.70734,-1.24929 8.88748,-4.46665 13.08341,-10.07001 l 1.05309,-1.40633 1.03057,1.32633 c 3.72962,4.79998 6.64409,10.21664 8.5789,15.9443 3.95734,11.71495 3.7514,24.46341 -0.58317,36.10204 -0.8668,2.32742 -2.70341,6.1917 -3.96381,8.33997 -1.046,1.78284 -2.71337,4.31055 -2.93291,4.44623 -0.0799,0.0494 -0.55668,-0.5996 -1.05951,-1.4422 z m -21.28281,-57.01057 c -3.83178,-0.49559 -7.58844,-2.1563 -15.6,-6.89632 -8.20067,-4.8519 -11.56272,-6.53177 -15.79709,-7.893123 -3.93067,-1.263716 -8.23775,-1.73515 -12.94938,-1.417384 -4.69514,0.316654 -8.5779,1.1665 -12.50411,2.736856 -0.46782,0.187111 -0.80595,0.267991 -0.7514,0.179731 0.17518,-0.283455 4.26974,-3.507283 5.67878,-4.471151 11.33027,-7.750628 24.85833,-10.865187 38.5632,-8.878392 9.32679,1.352105 18.14612,5.240927 25.90627,11.423177 1.72413,1.373559 4.65373,4.114806 4.65373,4.354536 0,0.24188 -2.56308,3.61057 -3.69518,4.85661 -2.75043,3.02728 -5.46191,4.87613 -8.30482,5.66274 -1.34429,0.37195 -3.74872,0.53042 -5.2,0.34272 z"
       id="path1" />
  </g>
</svg>
