<?xml version="1.0" encoding="UTF-8" standalone="no"?>
<!-- Created with Inkscape (http://www.inkscape.org/) -->

<svg
   version="1.1"
   id="svg1"
   width="291.72253"
   height="291.42282"
   viewBox="0 0 291.72253 291.42282"
   xmlns="http://www.w3.org/2000/svg"
   xmlns:svg="http://www.w3.org/2000/svg">
  <defs
     id="defs1" />
  <g
     id="g1"
     transform="translate(-7.7090427,-7.9095135)">
    <path
       style="mix-blend-mode:normal;fill:#000000;stroke-width:1;stroke-dasharray:none"
       d="m 139.07204,299.18106 c -4.00693,-0.27078 -11.30244,-1.4803 -17.39016,-2.8831 C 90.695416,289.1577 61.882367,271.58195 41.848247,247.60001 23.144658,225.21079 11.765546,198.67875 8.5670154,170.00001 7.292505,158.57246 7.4475463,144.34702 8.968094,133.20001 10.384952,122.81313 13.466909,111.16407 17.518896,100.88 23.773287,85.006173 32.889063,69.999122 44.294537,56.800002 46.960037,53.715321 53.571302,47.121608 56.560002,44.5671 64.651378,37.651224 73.901809,30.949227 80.800003,27.005063 98.981248,16.609616 123.34096,9.1373398 142.72001,8.0112694 c 3.32515,-0.1932171 21.80996,-0.090581 24.24,0.1345921 36.31586,3.3651165 72.00166,21.3792615 95.48833,48.2023875 20.28142,23.162553 32.54507,50.133631 36.25372,79.731761 0.59883,4.77917 0.72022,7.20295 0.72918,14.56 0.0167,13.70334 -0.58511,21.56289 -2.33384,30.48 -3.74725,19.10795 -10.77075,36.50448 -21.05856,52.16 -10.61209,16.14901 -24.51003,30.40483 -39.95883,40.9878 -17.07343,11.6959 -36.3993,19.52411 -58.16,23.55849 -3.89965,0.72299 -7.88422,1.06565 -15.92,1.36908 -5.01841,0.1895 -20.05084,0.18011 -22.92797,-0.0143 z m 18.92797,-8.47821 c 6.40257,-0.24173 12.15928,-0.72336 16.16,-1.352 5.07239,-0.79705 14.02555,-2.70251 14.93351,-3.17824 0.37073,-0.19424 0.3667,-0.20202 -0.52923,-1.02085 -0.49655,-0.45381 -1.99346,-1.66842 -3.32647,-2.69912 -5.60813,-4.33627 -11.92172,-10.38486 -17.84149,-17.09263 -5.58727,-6.33102 -8.88939,-11.36762 -13.47439,-20.55202 -4.07116,-8.1551 -6.34908,-14.20854 -8.14411,-21.64251 -2.2852,-9.46402 -3.27965,-18.21048 -3.27965,-28.84547 0,-12.69473 1.3651,-23.08551 4.8708,-37.07508 0.52307,-2.08729 0.95103,-3.85625 0.95103,-3.93101 0,-0.0748 -0.69191,-0.95897 -1.53758,-1.96492 -4.96947,-5.91134 -9.54795,-10.22779 -15.82242,-14.91689 -6.55062,-4.89547 -12.88338,-8.56731 -20.92043,-12.13002 -6.13968,-2.72164 -6.77536,-2.72474 -8.15997,-0.0399 -0.99376,1.92698 -2.96686,6.56551 -4.280067,10.06192 -3.924422,10.44877 -6.877726,22.58902 -8.308941,34.15588 -1.151708,9.30791 -1.262651,19.10415 -0.322538,28.48 2.57282,25.65904 12.668686,49.43703 30.298656,71.36 4.10691,5.10697 7.37227,8.70572 14.74546,16.25097 l 5.48302,5.61098 1.8124,0.20931 c 4.11075,0.47474 9.6381,0.57792 16.69241,0.31158 z m -34.88291,-3.49814 c 0.15872,-0.25682 -0.30692,-0.96378 -1.68928,-2.5647 -17.1671,-19.8815 -25.544086,-32.83461 -32.387553,-50.08 -5.229142,-13.17733 -7.964834,-25.27145 -9.228969,-40.8 -0.268877,-3.30288 -0.268877,-16.21713 0,-19.52 0.86821,-10.66504 2.362477,-19.49889 4.741567,-28.03135 2.010648,-7.21106 4.924803,-15.79086 6.995314,-20.59547 1.602525,-3.71866 2.501501,-5.86103 2.603553,-6.20459 0.09293,-0.31287 0.01137,-0.37904 -0.743556,-0.60322 -2.207304,-0.6555 -10.79101,-2.08892 -14.928173,-2.49291 -2.371497,-0.23157 -16.536985,-0.38237 -22.049383,-0.23473 l -4.440985,0.11895 -0.718292,1.22166 c -4.187199,7.1215 -9.039474,21.53366 -11.589058,34.42166 -1.314564,6.64504 -1.862559,12.65504 -2.027855,22.24 -0.183738,10.65437 0.39341,17.71799 2.183215,26.72 3.400057,17.10094 10.465198,34.58069 20.442939,50.57754 3.562189,5.7111 6.754388,9.02645 12.928427,13.42719 13.435448,9.57655 26.339327,15.86308 42.824459,20.86329 5.15688,1.56416 6.84087,1.92948 7.08363,1.53668 z m 80.761,-5.74856 c 20.3102,-8.11745 37.03109,-19.99411 52.83377,-37.52724 5.37893,-5.96793 10.28134,-12.5847 14.29129,-19.2889 3.96604,-6.63078 9.74057,-18.34961 9.27253,-18.81765 -0.16698,-0.16699 -0.51655,0.18314 -3.61182,3.61765 -3.36882,3.73803 -12.4715,12.86906 -16.27109,16.32175 -14.70474,13.36224 -33.06392,24.88625 -52.26464,32.80638 -6.69085,2.75992 -12.16722,4.62787 -20.44476,6.97356 -2.94615,0.83488 -5.40689,1.59929 -5.46832,1.69868 -0.54261,0.87795 4.52606,5.44635 11.94495,10.76601 2.45919,1.76334 6.63113,4.55362 6.80844,4.55362 0.0813,0 1.39059,-0.49674 2.90965,-1.10386 z m -26.72064,-22.50763 c 22.4733,-4.71205 45.36538,-15.10554 64.76255,-29.40357 2.93722,-2.16508 7.75012,-6.04081 10.56,-8.50375 2.59938,-2.27843 8.45456,-7.75881 9.68,-9.06037 0.44,-0.46733 1.65678,-1.7522 2.70396,-2.85526 6.78034,-7.14216 13.37455,-15.3583 18.76417,-23.37946 4.77265,-7.10294 5.40865,-8.61215 6.19734,-14.7061 1.0244,-7.91518 1.06681,-24.91174 0.0846,-33.92 -0.61314,-5.62363 -4.46933,-23.26321 -5.25797,-24.05186 -0.26391,-0.2639 -0.53797,0.20314 -1.62657,2.77185 -3.95566,9.33405 -8.51308,18.21236 -13.26422,25.84001 -16.6645,26.75379 -39.88272,47.6799 -68.88136,62.08138 -13.09128,6.50146 -28.57389,12.10418 -41.52,15.02489 -3.29051,0.74236 -4.92851,1.26548 -5.06344,1.6171 -0.20074,0.52311 2.87325,10.08705 4.52444,14.07663 3.25447,7.86342 9.46274,18.38083 13.44605,22.77889 1.02697,1.13391 2.27987,2.10111 2.72172,2.10111 0.11338,0 1.08928,-0.18517 2.16868,-0.41149 z M 37.918678,227.00001 c -7.28e-4,-0.11 -0.689031,-2.216 -1.529563,-4.68 -3.383309,-9.91809 -5.36938,-18.57954 -6.695563,-29.2 -1.983978,-15.88828 -1.484585,-29.10088 1.687245,-44.64 1.877607,-9.1986 4.180932,-17.06446 7.268769,-24.82287 1.719246,-4.31973 2.096261,-5.5475 1.790574,-5.83112 -0.241916,-0.22445 -1.746442,0.0216 -7.480139,1.22337 -4.222924,0.88512 -12.622506,2.94912 -12.824789,3.1514 -0.1729,0.1729 -1.161758,4.76315 -1.645684,7.63922 -1.321167,7.85194 -1.916241,15.76556 -1.912989,25.44 0.0034,10.16618 0.412906,14.52917 2.222495,23.68 3.087458,15.61282 7.813543,28.58132 15.36429,42.16 3.086822,5.5511 3.760154,6.60538 3.755354,5.88 z M 157.68001,210.00874 c 23.50334,-5.80921 46.93151,-16.85077 66.12774,-31.16562 5.59974,-4.1758 9.47174,-7.62115 16.75951,-14.91285 3.08398,-3.08564 6.3328,-6.43826 7.2196,-7.45026 7.70971,-8.79826 15.4877,-20.51286 21.72004,-32.71305 2.47506,-4.84508 3.92281,-8.0553 6.08472,-13.49214 3.47187,-8.73117 3.81353,-10.05748 3.20491,-12.4412 -0.44711,-1.751148 -4.0694,-8.796166 -7.308,-14.2134 -3.07165,-5.137952 -7.69751,-11.776985 -11.7002,-16.792095 -2.30106,-2.88308 -3.36137,-4.033108 -3.58885,-3.892517 -0.27176,0.167955 -1.0312,2.257648 -2.03868,5.609675 -4.34864,14.468506 -10.62459,27.786077 -19.00785,40.334717 -3.54947,5.31309 -7.18924,9.53275 -14.29986,16.57808 -9.20084,9.11638 -13.23872,12.26642 -21.97308,17.14166 -5.6528,3.15521 -12.8513,6.62621 -17.84,8.60214 -4.09043,1.62015 -9.36945,3.05947 -16.72,4.5587 -4.98685,1.01713 -6.86562,1.46833 -7.1717,1.72234 -0.8082,0.67072 -1.95042,4.58248 -3.21109,10.99709 -2.03591,10.35923 -2.32063,13.54737 -2.32192,26 -0.001,10.17387 0.2375,14.46329 0.89746,16.1371 0.17096,0.43356 0.21799,0.45206 0.91374,0.35938 0.40343,-0.0538 2.31751,-0.48923 4.25351,-0.96775 z m 2.08306,-62.33401 c 6.58207,-1.18885 12.13624,-2.71169 18.47694,-5.06599 8.01812,-2.97713 13.57214,-5.81839 21.25995,-10.87591 4.40608,-2.89859 6.58005,-4.62986 6.58005,-5.24012 0,-1.17678 -5.80375,-7.98376 -12.63551,-14.81968 C 184.061,102.28384 172.12971,93.413386 159.80857,86.66604 141.50259,76.641255 121.42927,70.699627 99.760004,68.891885 86.109132,67.753072 70.276737,68.39524 54.435087,70.730281 c -5.536448,0.816066 -10.406289,1.848531 -11.320286,2.400037 -1.955782,1.180119 -7.435465,10.088844 -12.689149,20.629686 -2.796221,5.610259 -4.47742,9.390356 -6.08448,13.680686 -1.075459,2.87113 -1.384216,3.95212 -1.237799,4.33368 0.121693,0.31713 0.362247,0.28924 3.296628,-0.38211 21.830159,-4.9945 42.420024,-5.94709 61.040002,-2.82401 18.154817,3.04506 35.532947,10.50353 50.080007,21.4937 4.8145,3.63732 10.15233,8.63808 13.76738,12.89806 3.29599,3.88398 4.67143,5.2 5.43479,5.2 0.19479,0 1.56319,-0.21838 3.04089,-0.48528 z M 215.45809,118.84 c 7.25547,-7.36654 13.87468,-16.46105 19.58663,-26.911167 2.77289,-5.073057 3.03932,-5.906208 2.34209,-7.324085 -0.58949,-1.198779 -4.06617,-5.045097 -9.30555,-10.294912 C 219.76675,65.978775 212.31167,59.823875 203.31751,53.864915 184.36313,41.30695 164.07279,33.378071 141.03352,29.526133 130.65724,27.791323 124.36158,27.360001 109.41621,27.360001 h -9.896887 l -5.07966,2.530943 c -2.793812,1.392018 -5.691659,2.877219 -6.43966,3.300447 -7.662113,4.335316 -15.037351,9.402984 -21.76,14.951714 -3.345606,2.761391 -5.639963,4.841467 -9.098674,8.248904 -3.387302,3.337086 -4.981327,5.064162 -4.981327,5.397108 0,0.19842 0.250929,0.172707 4.001128,-0.409995 11.727987,-1.822284 32.986822,-2.418072 46.07887,-1.29138 4.26623,0.367148 10.66961,1.319701 16.08,2.392025 25.82232,5.117907 49.0525,15.844588 68.96001,31.842724 4.79118,3.850309 6.98807,5.848059 12.65568,11.508519 5.71522,5.70801 8.00386,8.16668 10.50829,11.28899 2.4775,3.08876 2.8516,3.52 3.05354,3.52 0.10324,0 0.9855,-0.81 1.96057,-1.8 z m 26.76017,-43.279997 c 1.32541,-2.609499 5.5605,-16.273291 6.02713,-19.445512 0.10285,-0.699193 0.0645,-0.837806 -0.44223,-1.6 -0.99826,-1.501405 -3.75755,-4.075171 -8.12315,-7.576983 -12.74506,-10.223294 -26.7902,-17.952684 -42.13254,-23.186595 -18.17871,-6.201515 -37.49362,-8.484411 -56.731,-6.705232 -6.87087,0.635456 -11.27582,1.5083 -10.66987,2.114246 0.0542,0.05425 0.99332,0.15503 2.08682,0.223956 4.87251,0.307129 17.09943,2.52089 24.71252,4.474361 23.39748,6.003637 45.90163,17.209704 63.93407,31.836318 5.8229,4.72312 19.74394,18.169795 20.49505,19.796671 0.16772,0.363283 0.35749,0.662372 0.4217,0.664642 0.0642,0.0023 0.25388,-0.265872 0.4215,-0.595872 z"
       id="path1" />
  </g>
</svg>
