<!-- WhatsApp (24x24, currentColor) -->
<svg xmlns="http://www.w3.org/2000/svg" width="24" height="24" viewBox="0 0 32 32" fill="none" aria-hidden="true">
  <path fill="currentColor" d="M16 3C9.38 3 4 8.16 4 14.52c0 2.49.86 4.82 2.34 6.72L5 29l7.98-1.99A12.5 12.5 0 0 0 16 26.04c6.62 0 12-5.16 12-11.52S22.62 3 16 3zm0 20.64c-1.73 0-3.34-.44-4.75-1.2l-.34-.19-4.74 1.18 1.27-4.47-.22-.35a9.43 9.43 0 0 1-1.54-5.09C5.68 9.57 10.26 5.4 16 5.4s10.32 4.17 10.32 9.12S21.74 23.64 16 23.64z"/>
  <path fill="currentColor" d="M22.03 18.32c-.33.92-1.64 1.7-2.6 1.89-.66.13-1.5.23-4.87-1.04-4.3-1.62-7.07-5.58-7.29-5.84-.2-.26-1.74-2.28-1.74-4.34 0-2.06 1.1-3.07 1.49-3.49.39-.42.85-.52 1.13-.52h.82c.26 0 .62-.1.97.74.36.87 1.24 3.02 1.35 3.24.11.22.18.49.04.75-.13.26-.2.42-.39.65-.2.23-.4.51-.57.68-.2.2-.4.42-.18.81.22.39.99 1.62 2.12 2.62 1.46 1.3 2.69 1.7 3.08 1.9.39.2.61.17.84-.1.23-.26.96-1.1 1.22-1.49.26-.39.51-.33.86-.2.36.13 2.27 1.07 2.66 1.26.39.2.65.29.75.46.1.16.1.94-.23 1.86z"/>
</svg>
